<svg width="3786" height="810" viewBox="0 0 3786 810" fill="none" xmlns="http://www.w3.org/2000/svg">
<path d="M1365.34 567.912V244.232H1450.23C1475.71 244.232 1497.64 246.937 1516 252.348C1534.44 257.688 1549.24 267.121 1560.42 280.647C1571.67 294.103 1578.07 312.436 1579.64 335.644C1579.92 337.709 1580.07 340.628 1580.07 344.401C1580.07 362.342 1575.3 378.36 1565.76 392.457C1556.29 406.553 1543.05 417.516 1526.04 425.347C1509.03 433.179 1489.74 437.095 1468.17 437.095H1397.7V567.912H1365.34ZM1397.7 273.065V408.261H1464.64C1493.12 408.261 1514.01 401.711 1527.32 388.612C1540.63 375.512 1547.29 357.857 1547.29 335.644C1546.08 312.649 1537.29 296.488 1520.91 287.162C1504.61 277.764 1482.37 273.065 1454.18 273.065H1397.7ZM1624.27 567.912V244.232H1709.15C1734.64 244.232 1756.56 246.937 1774.93 252.348C1793.36 257.688 1808.17 267.121 1819.34 280.647C1830.59 294.103 1837 312.436 1838.56 335.644C1838.85 337.709 1838.99 340.628 1838.99 344.401C1838.99 362.342 1834.22 378.36 1824.68 392.457C1815.22 406.553 1801.98 417.516 1784.96 425.347C1767.95 433.179 1748.66 437.095 1727.09 437.095H1656.62V567.912H1624.27ZM1656.62 273.065V408.261H1723.57C1752.04 408.261 1772.93 401.711 1786.24 388.612C1799.56 375.512 1806.21 357.857 1806.21 335.644C1805 312.649 1796.21 296.488 1779.84 287.162C1763.54 277.764 1741.29 273.065 1713.11 273.065H1656.62ZM1883.19 567.912V244.232H2059.9V273.92H1915.55V390.32H2055.1V419.154H1915.55V539.079H2059.9V567.912H1883.19ZM2149.49 539.079L2283.81 538.118V567.913H2117.14V244.232H2149.49V539.079ZM2306.98 383.272C2310.18 354.51 2319.93 329.166 2336.23 307.238C2352.61 285.311 2373 268.474 2397.41 256.727C2421.9 244.909 2447.56 238.999 2474.4 238.999C2489.06 238.999 2503.4 240.779 2517.43 244.339C2531.45 247.898 2544.83 253.309 2557.57 260.571C2570.39 267.762 2582.27 276.874 2593.24 287.909C2604.27 298.944 2613.95 311.937 2622.28 326.887H2586.4C2577.08 314.642 2566.37 304.319 2554.26 295.918C2542.16 287.518 2529.46 281.324 2516.15 277.337C2502.84 273.35 2489.52 271.357 2476.21 271.357C2458.42 271.357 2441.23 274.561 2424.64 280.968C2408.13 287.375 2393.36 296.595 2380.33 308.626C2367.38 320.658 2357.13 335.11 2349.58 351.983C2342.11 368.856 2338.37 387.331 2338.37 407.407C2338.65 433.25 2345.2 456.495 2358.02 477.141C2370.9 497.715 2387.81 513.77 2408.73 525.303C2429.66 536.765 2451.83 542.674 2475.25 543.03C2488.99 542.673 2502.66 540.324 2516.25 535.982C2529.85 531.639 2542.77 525.125 2555.01 516.439C2567.26 507.683 2578.15 496.683 2587.68 483.441H2623.56C2611.82 503.589 2598.08 520.355 2582.35 533.739C2566.61 547.124 2549.67 557.055 2531.52 563.534C2513.44 569.941 2494.69 573.145 2475.25 573.145C2453.83 573.145 2432.93 569.194 2412.58 561.291C2392.29 553.318 2374.03 541.891 2357.8 527.012C2341.64 512.132 2328.9 494.263 2319.58 473.403C2310.25 452.543 2305.59 429.797 2305.59 405.165C2305.59 397.761 2306.05 390.463 2306.98 383.272ZM2675.13 567.912V244.232H2707.48V385.942H2875.87V244.232H2907.36V567.912H2875.87V415.736H2707.48V567.912H2671.72H2675.13ZM2974.31 567.912V244.232H3151.02V273.92H3006.66V390.32H3146.22V419.154H3006.66V539.079H3151.02V567.912H2974.31ZM3195.65 383.272C3198.85 354.51 3208.61 329.166 3224.91 307.238C3241.28 285.311 3261.67 268.474 3286.09 256.727C3310.58 244.909 3336.24 238.999 3363.07 238.999C3377.74 238.999 3392.08 240.779 3406.1 244.339C3420.12 247.898 3433.51 253.309 3446.25 260.571C3459.06 267.762 3470.95 276.874 3481.91 287.909C3492.94 298.944 3502.62 311.937 3510.95 326.887H3475.08C3465.75 314.642 3455.04 304.319 3442.94 295.918C3430.84 287.518 3418.13 281.324 3404.82 277.337C3391.51 273.35 3378.2 271.357 3364.89 271.357C3347.09 271.357 3329.9 274.561 3313.32 280.968C3296.8 287.375 3282.03 296.595 3269 308.626C3256.05 320.658 3245.8 335.11 3238.25 351.983C3230.78 368.856 3227.04 387.331 3227.04 407.407C3227.33 433.25 3233.88 456.495 3246.69 477.141C3259.57 497.715 3276.48 513.77 3297.41 525.303C3318.33 536.765 3340.51 542.674 3363.93 543.03C3377.66 542.673 3391.33 540.324 3404.93 535.982C3418.52 531.639 3431.44 525.125 3443.69 516.439C3455.93 507.683 3466.82 496.683 3476.36 483.441H3512.23C3500.49 503.589 3486.75 520.355 3471.02 533.739C3455.29 547.124 3438.35 557.055 3420.2 563.534C3402.12 569.941 3383.36 573.145 3363.93 573.145C3342.5 573.145 3321.61 569.194 3301.25 561.291C3280.96 553.318 3262.7 541.891 3246.48 527.012C3230.32 512.132 3217.58 494.263 3208.25 473.403C3198.93 452.543 3194.26 429.797 3194.26 405.165C3194.26 397.761 3194.73 390.463 3195.65 383.272ZM3562.95 567.912V245.087H3595.3V431.008L3744.89 245.087H3786L3658.73 403.028L3785.15 567.912H3744.89L3637.27 428.765L3595.3 480.878V567.912H3559.43H3562.95Z" fill="white"/>
<circle cx="1141.5" cy="405.5" r="156.5" stroke="white" stroke-width="24"/>
<path d="M516 794.038C731.125 794.038 905.519 619.645 905.519 404.519C905.519 189.394 731.125 15 516 15" stroke="white" stroke-width="30"/>
<circle cx="542.5" cy="405.5" r="158.5" stroke="white" stroke-width="20"/>
<circle cx="20.0611" cy="206.061" r="20.0611" fill="white"/>
<path d="M128.725 334.786H306.21L374.473 405L306.21 475.214H128.725" stroke="white" stroke-width="12" stroke-linecap="round"/>
<circle cx="20.0611" cy="20.0611" r="20.0611" transform="matrix(1 0 0 -1 0 615.641)" fill="white"/>
<path d="M402.893 321.412L289.214 206.061H20.061" stroke="white" stroke-width="12" stroke-linecap="round"/>
<path d="M402.893 480.229L289.214 595.58H20.061" stroke="white" stroke-width="12" stroke-linecap="round"/>
<circle cx="128.725" cy="334.786" r="20.0611" fill="white"/>
<circle cx="128.725" cy="475.214" r="20.0611" fill="white"/>
</svg>
