<svg width="44" height="44" viewBox="0 0 44 44" fill="none" xmlns="http://www.w3.org/2000/svg">
<path d="M12.93 0.132C15.276 0.024 16.024 0 22 0C27.976 0 28.724 0.0260001 31.068 0.132C33.412 0.238 35.012 0.612 36.412 1.154C37.878 1.708 39.208 2.574 40.308 3.694C41.428 4.792 42.292 6.12 42.844 7.588C43.388 8.988 43.76 10.588 43.868 12.928C43.976 15.278 44 16.026 44 22C44 27.976 43.974 28.724 43.868 31.07C43.762 33.41 43.388 35.01 42.844 36.41C42.292 37.8782 41.4266 39.2084 40.308 40.308C39.208 41.428 37.878 42.292 36.412 42.844C35.012 43.388 33.412 43.76 31.072 43.868C28.724 43.976 27.976 44 22 44C16.024 44 15.276 43.974 12.93 43.868C10.59 43.762 8.99 43.388 7.59 42.844C6.12184 42.2919 4.79164 41.4265 3.69199 40.308C2.57276 39.2093 1.70663 37.8798 1.154 36.412C0.611995 35.012 0.239995 33.412 0.131995 31.072C0.024 28.722 0 27.974 0 22C0 16.024 0.0260001 15.276 0.132 12.932C0.238 10.588 0.612 8.988 1.154 7.588C1.70745 6.12016 2.57424 4.79063 3.694 3.692C4.79208 2.573 6.12095 1.70688 7.588 1.154C8.988 0.611999 10.588 0.239999 12.928 0.131999L12.93 0.132ZM30.89 4.092C28.57 3.986 27.874 3.964 22 3.964C16.126 3.964 15.43 3.986 13.11 4.092C10.964 4.19 9.8 4.548 9.024 4.85C7.998 5.25 7.264 5.724 6.494 6.494C5.76409 7.2041 5.20236 8.06857 4.85 9.024C4.548 9.8 4.19 10.964 4.092 13.11C3.986 15.43 3.964 16.126 3.964 22C3.964 27.874 3.986 28.57 4.092 30.89C4.19 33.036 4.548 34.2 4.85 34.976C5.202 35.93 5.764 36.796 6.494 37.506C7.204 38.236 8.07 38.798 9.024 39.15C9.8 39.452 10.964 39.81 13.11 39.908C15.43 40.014 16.124 40.036 22 40.036C27.876 40.036 28.57 40.014 30.89 39.908C33.036 39.81 34.2 39.452 34.976 39.15C36.002 38.75 36.736 38.276 37.506 37.506C38.236 36.796 38.798 35.93 39.15 34.976C39.452 34.2 39.81 33.036 39.908 30.89C40.014 28.57 40.036 27.874 40.036 22C40.036 16.126 40.014 15.43 39.908 13.11C39.81 10.964 39.452 9.8 39.15 9.024C38.75 7.998 38.276 7.264 37.506 6.494C36.7959 5.76415 35.9314 5.20243 34.976 4.85001C34.2 4.548 33.036 4.19 30.89 4.092ZM19.19 28.782C22.4263 30.1292 26.1636 28.9992 28.1112 26.0845C30.0589 23.1698 29.673 19.2846 27.19 16.81C25.0906 14.7119 21.9341 14.0847 19.192 15.2207C16.4499 16.3568 14.6619 19.0326 14.6615 22.0007C14.6615 24.9699 16.4491 27.6459 19.191 28.7824L19.19 28.782ZM14.004 14.004C18.4201 9.58793 25.5799 9.58793 29.996 14.004C34.4121 18.4201 34.4121 25.5799 29.996 29.996C25.5799 34.4121 18.4201 34.4121 14.004 29.996C9.58793 25.5799 9.58793 18.4201 14.004 14.004ZM35.816 12.376C36.5245 11.7077 36.8135 10.7071 36.5706 9.76393C36.3277 8.82079 35.5912 8.0843 34.6481 7.84139C33.7049 7.59847 32.7043 7.88755 32.036 8.596C31.0435 9.64818 31.0675 11.2989 32.0903 12.3217C33.1131 13.3445 34.7638 13.3685 35.816 12.376Z" fill="white"/>
</svg>
