<svg width="67" height="44" viewBox="0 0 67 44" fill="none" xmlns="http://www.w3.org/2000/svg">
<path d="M65.5971 6.90361C65.2178 5.57132 64.4789 4.36513 63.4589 3.41327C62.4102 2.43214 61.1249 1.73032 59.7242 1.37404C54.4821 0.0136308 33.4805 0.0136308 33.4805 0.0136308C24.7251 -0.0844564 15.9719 0.346908 7.27028 1.30532C5.86957 1.68791 4.5866 2.40543 3.5355 3.39403C2.50272 4.37243 1.75465 5.57893 1.36387 6.90086C0.425141 11.88 -0.0309593 16.9358 0.00172274 22C-0.0317728 27.0596 0.423208 32.1137 1.36387 37.0991C1.74628 38.4155 2.49155 39.6166 3.52712 40.5867C4.56269 41.5568 5.85227 42.2577 7.27025 42.6287C12.5821 43.9863 33.4805 43.9863 33.4805 43.9863C42.247 44.0845 51.0114 43.6532 59.7242 42.6946C61.1249 42.3384 62.4102 41.6365 63.4589 40.6554C64.4785 39.7037 65.2165 38.4974 65.5943 37.1651C66.5575 32.1878 67.0259 27.1299 66.9927 22.0632C67.0651 16.975 66.5974 11.8933 65.5971 6.90086V6.90361ZM26.8037 31.4101V12.5926L44.2772 22.0027L26.8037 31.4101Z" fill="white"/>
</svg>
