<svg width="43" height="43" viewBox="0 0 43 43" fill="none" xmlns="http://www.w3.org/2000/svg">
<path d="M15.9723 14.9833H23.9574V18.9608C25.1077 16.6732 28.0575 14.6178 32.4886 14.6178C40.9833 14.6178 43 19.1715 43 27.5264V43H34.4V29.4292C34.4 24.6712 33.2497 21.9881 30.3214 21.9881C26.2601 21.9881 24.5723 24.8798 24.5723 29.427V43H15.9723L15.9723 14.9833ZM1.2255 42.6345H9.8255V14.6178H1.2255L1.2255 42.6345ZM11.0574 5.4825C11.0581 6.93856 10.4749 8.3341 9.4385 9.3568C8.39876 10.3901 6.99139 10.9685 5.5255 10.965C4.06219 10.964 2.65807 10.3871 1.6168 9.35895C0.584256 8.33292 0.00251526 6.93814 0 5.4825C0 4.02695 0.5805 2.63375 1.61895 1.60605C2.6593 0.57654 4.06402 -0.000644165 5.52765 5.39512e-07C6.99395 2.46598e-07 8.40005 0.57835 9.4385 1.60605C10.4748 2.63375 11.0574 4.02695 11.0574 5.4825Z" fill="white"/>
</svg>
